<svg viewBox="0 0 96 96" xmlns="http://www.w3.org/2000/svg" xmlns:xlink="http://www.w3.org/1999/xlink" id="Icons_IV" overflow="hidden"><path d="M34 19 62 19C65.9 19 69 22.1 69 26L63 26 63 30 69 30 69 36 63 36 63 40 69 40 69 46 63 46 63 50 69 50 69 54C63.8 56.1 57.6 54.6 52.3 52.6 47.8 50.9 45.4 48.8 40.7 48.1 36.7 47.5 30.8 48.2 27 50.5L27 26C27 22.1 30.1 19 34 19ZM48 8C49.1 8 50 8.9 50 10 50 11.1 49.1 12 48 12 46.9 12 46 11.1 46 10 46 8.9 46.9 8 48 8ZM62 13 53.2 13C53.7 12.1 54 11.1 54 10 54 6.7 51.3 4 48 4 44.7 4 42 6.7 42 10 42 11.1 42.3 12.1 42.8 13L34 13C26.8 13 21 18.8 21 26L21 66C21 73.2 26.8 79 34 79L42 79 42 83C42 84.1 42.9 85 44 85L46 85 46 92 50 92 50 85 52 85C53.1 85 54 84.1 54 83L54 79 62 79C69.2 79 75 73.2 75 66L75 26C75 18.8 69.2 13 62 13Z"/></svg>