<svg viewBox="0 0 96 96" xmlns="http://www.w3.org/2000/svg" xmlns:xlink="http://www.w3.org/1999/xlink" id="Icons_FirstAidKit" overflow="hidden"><path d="M84 25 64 25 64 18C64 14.134 60.866 11 57 11L39 11C35.134 11 32 14.134 32 18L32 25 12 25C9.79086 25 8 26.7909 8 29L8 77C8 79.2091 9.79086 81 12 81L84 81C86.2091 81 88 79.2091 88 77L88 29C88 26.7909 86.2091 25 84 25ZM38 18C37.9657 17.482 38.3579 17.0343 38.8759 17 38.9172 16.9973 38.9587 16.9973 39 17L57 17C57.518 16.9657 57.9657 17.3579 58 17.8759 58.0027 17.9172 58.0027 17.9587 58 18L58 25 38 25ZM63 57 59 64 52 60 52 68 44 68 44 59.93 37 63.93 33 57 40 53 33 49 37 42 44 46 44 38 52 38 52 46.07 59 42.07 63 49 56 53Z"/></svg>